<svg version="1.0" xmlns="http://www.w3.org/2000/svg"  width="240.000000pt" height="240.000000pt" viewBox="0 0 240.000000 240.000000"  preserveAspectRatio="xMidYMid meet"> <g transform="translate(0.000000,240.000000) scale(0.100000,-0.100000)" fill="#000000" stroke="none"> <path d="M420 2221 c-210 -81 -310 -280 -252 -501 31 -119 136 -222 264 -261 303 -92 591 197 499 499 -34 112 -100 189 -209 244 -56 28 -74 32 -160 34 -73 2 -108 -2 -142 -15z m219 -37 c151 -42 271 -197 271 -349 0 -174 -181 -355 -355 -355 -107 0 -232 68 -296 161 -76 109 -87 234 -31 352 75 159 245 238 411 191z"/> <path d="M1787 2234 c-1 -1 -20 -5 -41 -8 -60 -10 -160 -63 -205 -110 -93 -95 -116 -153 -116 -291 0 -94 3 -105 33 -165 55 -111 132 -177 244 -211 198 -61 415 46 489 239 60 158 17 336 -109 448 -49 44 -143 83 -220 92 -40 5 -73 7 -75 6z m122 -60 c152 -42 271 -197 271 -352 0 -52 -32 -138 -74 -199 -57 -83 -185 -153 -281 -153 -107 0 -232 68 -296 161 -76 109 -87 234 -31 352 75 159 245 238 411 191z"/> <path d="M1715 966 c-107 -26 -201 -104 -256 -214 -32 -63 -34 -71 -34 -171 1 -99 3 -110 33 -171 54 -110 131 -177 244 -211 198 -61 415 46 489 239 86 225 -42 475 -270 528 -68 17 -139 16 -206 0z m194 -42 c160 -44 284 -216 269 -372 -6 -66 -59 -173 -110 -224 -51 -51 -156 -100 -226 -106 -110 -9 -244 59 -313 159 -76 109 -87 234 -31 352 75 159 245 238 411 191z"/> <path d="M452 959 c-55 -11 -137 -57 -185 -106 -92 -91 -132 -222 -109 -355 59 -341 490 -443 708 -168 174 220 57 563 -215 626 -62 15 -134 16 -199 3z m187 -45 c151 -42 271 -197 271 -349 0 -176 -181 -355 -360 -355 -197 0 -377 200 -357 395 11 111 89 230 182 278 95 48 171 58 264 31z"/> </g> </svg>